<svg width="86" height="86" viewBox="0 0 86 86" fill="none" xmlns="http://www.w3.org/2000/svg">
<g filter="url(#filter0_d_878_2)">
<path fill-rule="evenodd" clip-rule="evenodd" d="M43 58C55.7025 58 66 47.7025 66 35C66 22.2975 55.7025 12 43 12C30.2975 12 20 22.2975 20 35C20 47.7025 30.2975 58 43 58Z" fill="#5669FF"/>
</g>
<path fill-rule="evenodd" clip-rule="evenodd" d="M43.5 20.375C43.7901 20.375 44.0683 20.4902 44.2734 20.6954C44.4785 20.9005 44.5938 21.1787 44.5938 21.4688V32.4062H55.5312C55.8213 32.4062 56.0995 32.5215 56.3046 32.7266C56.5098 32.9317 56.625 33.2099 56.625 33.5C56.625 33.7901 56.5098 34.0683 56.3046 34.2734C56.0995 34.4785 55.8213 34.5938 55.5312 34.5938H44.5938V45.5312C44.5938 45.8213 44.4785 46.0995 44.2734 46.3046C44.0683 46.5098 43.7901 46.625 43.5 46.625C43.2099 46.625 42.9317 46.5098 42.7266 46.3046C42.5215 46.0995 42.4062 45.8213 42.4062 45.5312V34.5938H31.4688C31.1787 34.5938 30.9005 34.4785 30.6954 34.2734C30.4902 34.0683 30.375 33.7901 30.375 33.5C30.375 33.2099 30.4902 32.9317 30.6954 32.7266C30.9005 32.5215 31.1787 32.4062 31.4688 32.4062H42.4062V21.4688C42.4062 21.1787 42.5215 20.9005 42.7266 20.6954C42.9317 20.4902 43.2099 20.375 43.5 20.375Z" fill="white"/>
<defs>
<filter id="filter0_d_878_2" x="0" y="0" width="86" height="86" filterUnits="userSpaceOnUse" color-interpolation-filters="sRGB">
<feFlood flood-opacity="0" result="BackgroundImageFix"/>
<feColorMatrix in="SourceAlpha" type="matrix" values="0 0 0 0 0 0 0 0 0 0 0 0 0 0 0 0 0 0 127 0" result="hardAlpha"/>
<feOffset dy="8"/>
<feGaussianBlur stdDeviation="10"/>
<feColorMatrix type="matrix" values="0 0 0 0 0.290196 0 0 0 0 0.262745 0 0 0 0 0.92549 0 0 0 0.25 0"/>
<feBlend mode="normal" in2="BackgroundImageFix" result="effect1_dropShadow_878_2"/>
<feBlend mode="normal" in="SourceGraphic" in2="effect1_dropShadow_878_2" result="shape"/>
</filter>
</defs>
</svg>
