<svg width="16" height="18" viewBox="0 0 16 18" fill="none" xmlns="http://www.w3.org/2000/svg">
<path d="M1.34578 3.57817H1.13495C0.790784 3.57817 0.512451 3.299 0.512451 2.95567C0.512451 2.61234 0.790784 2.33317 1.13495 2.33317H5.51245V1.49984C5.51245 1.054 5.90745 0.666504 6.34578 0.666504H9.67912C10.1175 0.666504 10.5125 1.054 10.5125 1.49984V2.33317H14.8908C15.2341 2.33317 15.5125 2.61234 15.5125 2.95567C15.5125 3.299 15.2341 3.57817 14.8908 3.57817H14.6791V16.4407C14.6791 16.9332 14.3058 17.3332 13.8458 17.3332C11.4516 17.3332 4.57328 17.3332 2.17912 17.3332C1.71912 17.3332 1.34578 16.9332 1.34578 16.4407V3.57817ZM13.4291 3.57817H2.59578V16.0832H13.4291V3.57817ZM9.88745 5.6665C9.54245 5.6665 9.26245 5.9465 9.26245 6.2915V13.3748C9.26245 13.7198 9.54245 13.9998 9.88745 13.9998C10.2325 13.9998 10.5125 13.7198 10.5125 13.3748V6.2915C10.5125 5.9465 10.2325 5.6665 9.88745 5.6665ZM6.13745 5.6665C5.79245 5.6665 5.51245 5.9465 5.51245 6.2915V13.3748C5.51245 13.7198 5.79245 13.9998 6.13745 13.9998C6.48245 13.9998 6.76245 13.7198 6.76245 13.3748V6.2915C6.76245 5.9465 6.48245 5.6665 6.13745 5.6665ZM9.26245 2.33317V1.9165H6.76245V2.33317H9.26245Z" fill="#ED0808"/>
</svg>
