<svg width="20" height="20" viewBox="0 0 20 20" fill="none" xmlns="http://www.w3.org/2000/svg">
<path d="M10.1623 0.289551C4.84149 0.289551 0.512573 4.61847 0.512573 9.93926C0.512573 15.2601 4.84149 19.589 10.1623 19.589C15.4831 19.589 19.812 15.2601 19.812 9.93926C19.812 4.61847 15.4831 0.289551 10.1623 0.289551ZM11.6469 14.393H8.67771C8.48085 14.393 8.29204 14.3148 8.15284 14.1756C8.01363 14.0364 7.93543 13.8476 7.93543 13.6507C7.93543 13.4538 8.01363 13.265 8.15284 13.1258C8.29204 12.9866 8.48085 12.9084 8.67771 12.9084H11.6469C11.8437 12.9084 12.0325 12.9866 12.1717 13.1258C12.3109 13.265 12.3891 13.4538 12.3891 13.6507C12.3891 13.8476 12.3109 14.0364 12.1717 14.1756C12.0325 14.3148 11.8437 14.393 11.6469 14.393ZM13.8737 11.4238H6.45086C6.25399 11.4238 6.06519 11.3456 5.92598 11.2064C5.78678 11.0672 5.70857 10.8784 5.70857 10.6815C5.70857 10.4847 5.78678 10.2959 5.92598 10.1567C6.06519 10.0175 6.25399 9.93926 6.45086 9.93926H13.8737C14.0706 9.93926 14.2594 10.0175 14.3986 10.1567C14.5378 10.2959 14.616 10.4847 14.616 10.6815C14.616 10.8784 14.5378 11.0672 14.3986 11.2064C14.2594 11.3456 14.0706 11.4238 13.8737 11.4238ZM15.3583 8.45469H4.96629C4.76942 8.45469 4.58062 8.37649 4.44141 8.23728C4.30221 8.09807 4.224 7.90927 4.224 7.71241C4.224 7.51554 4.30221 7.32674 4.44141 7.18753C4.58062 7.04833 4.76942 6.97012 4.96629 6.97012H15.3583C15.5551 6.97012 15.744 7.04833 15.8832 7.18753C16.0224 7.32674 16.1006 7.51554 16.1006 7.71241C16.1006 7.90927 16.0224 8.09807 15.8832 8.23728C15.744 8.37649 15.5551 8.45469 15.3583 8.45469Z" fill="#A29EF0"/>
</svg>
