<?xml version="1.0" standalone="no"?>
<!DOCTYPE svg PUBLIC "-//W3C//DTD SVG 20010904//EN"
 "http://www.w3.org/TR/2001/REC-SVG-20010904/DTD/svg10.dtd">
<svg version="1.0" xmlns="http://www.w3.org/2000/svg"
 width="500.000000pt" height="333.000000pt" viewBox="0 0 500.000000 333.000000"
 preserveAspectRatio="xMidYMid meet">

<g transform="translate(0.000000,333.000000) scale(0.100000,-0.100000)"
fill="#000000" stroke="none">
<path d="M0 3312 c0 -12 18 -24 63 -40 34 -12 70 -22 79 -22 10 0 33 -9 53
-20 20 -11 44 -20 54 -20 23 0 153 -40 165 -51 6 -5 19 -9 29 -9 11 0 63 -15
116 -34 53 -18 125 -41 161 -51 36 -10 69 -22 74 -27 6 -4 16 -8 24 -8 8 0 77
-22 154 -50 77 -27 148 -50 158 -50 9 0 53 -14 96 -31 44 -17 95 -37 114 -44
19 -8 69 -24 110 -36 41 -12 82 -26 90 -30 22 -12 109 -39 125 -39 8 0 15 -5
15 -11 0 -13 -68 -3 -88 14 -7 6 -49 12 -93 15 -64 4 -77 7 -68 18 8 10 2 15
-28 23 -21 6 -39 7 -41 2 -4 -12 -75 10 -85 27 -6 9 -18 11 -33 8 -14 -4 -24
-2 -24 4 0 5 -9 10 -19 10 -11 0 -23 5 -26 10 -11 18 -26 10 -39 -20 -11 -28
-14 -29 -32 -15 -17 13 -17 14 -1 15 9 0 17 4 17 10 0 13 -52 39 -75 37 -12
-1 -24 8 -33 26 -13 27 -47 37 -54 16 -3 -8 -9 -7 -19 3 -20 21 -86 32 -91 16
-3 -9 -6 -9 -12 0 -4 7 -2 12 3 12 6 0 11 5 11 10 0 6 -7 10 -15 10 -8 0 -15
-4 -15 -10 0 -5 -5 -10 -11 -10 -6 0 -9 8 -7 18 3 12 -1 17 -16 18 -48 4 -86
14 -121 33 -21 11 -42 18 -46 15 -4 -2 -10 0 -14 5 -3 6 -33 13 -67 17 -47 5
-62 11 -65 25 -3 11 -14 19 -24 19 -18 0 -38 7 -118 42 -25 11 -55 17 -70 14
-14 -3 -20 -3 -14 0 18 8 16 27 -2 20 -8 -3 -30 3 -48 12 -34 19 -110 45 -140
48 -10 1 -23 6 -30 13 -6 6 -15 11 -19 11 -4 0 -8 -581 -8 -1290 0 -1271 0
-1290 19 -1278 11 6 22 28 26 47 8 40 25 25 20 -18 -26 -198 -39 -284 -50
-321 -9 -30 -14 -106 -15 -232 l-1 -188 140 1 c139 0 141 0 141 22 0 12 5 29
11 37 8 11 9 5 4 -23 l-6 -38 38 3 38 3 8 80 c5 44 13 82 17 85 5 3 10 21 13
40 3 26 5 20 7 -25 2 -33 4 -68 5 -77 1 -20 15 -37 15 -19 0 7 5 9 10 6 6 -4
8 -11 5 -16 -6 -8 9 -13 29 -10 5 1 5 -6 1 -16 -23 -55 -36 -52 204 -53 171 0
221 3 221 12 0 7 -9 49 -19 93 -11 44 -22 101 -26 128 -8 49 -25 75 -25 36 0
-35 -22 -151 -27 -145 -3 3 -2 42 2 87 5 57 13 87 25 99 9 9 21 35 25 56 6 35
8 37 16 17 22 -58 42 -188 43 -278 l1 -100 162 -2 162 -3 6 38 c10 68 62 236
104 334 49 115 62 174 62 288 1 72 3 80 11 55 6 -16 11 -84 12 -150 1 -126
-10 -177 -69 -330 -42 -110 -85 -227 -85 -232 0 -2 12 -3 27 -1 23 3 29 12 55
88 40 118 78 260 78 293 0 15 5 27 11 27 6 0 8 -8 6 -17 -3 -10 -8 -35 -12
-57 -5 -33 -4 -38 9 -32 9 3 23 9 31 12 13 5 15 -8 16 -82 0 -49 3 -102 5
-119 2 -16 6 -49 10 -73 l5 -42 1740 0 1739 0 0 1000 c0 981 0 1000 -19 1000
-12 0 -21 -8 -24 -22 -2 -14 -5 -7 -6 16 -1 31 5 46 26 68 22 23 24 30 13 43
-18 22 -20 57 -5 75 14 15 15 86 2 107 -4 6 -3 14 2 18 12 7 15 615 3 615 -5
0 -35 -9 -67 -20 -71 -24 -81 -25 -90 -2 -8 18 -44 280 -52 375 l-5 57 -514 0
-514 0 0 -32 c1 -18 5 -91 9 -163 9 -133 4 -162 -27 -150 -8 3 -21 -3 -28 -12
-9 -12 -16 -14 -21 -7 -5 7 -21 2 -48 -14 -37 -22 -38 -23 -10 -17 17 4 32 11
33 16 4 11 22 12 22 1 0 -14 -71 -43 -90 -37 -10 3 -23 -2 -31 -11 -13 -16
-12 -16 9 -5 17 9 22 9 22 -1 0 -23 78 -10 86 14 5 18 7 18 23 4 22 -20 35
-21 28 -2 -3 8 1 20 9 26 10 9 14 9 14 1 0 -6 9 -11 20 -11 12 0 17 -5 14 -14
-4 -9 4 -13 25 -12 17 1 31 4 31 9 0 4 8 7 18 8 15 0 14 2 -3 10 -17 8 -17 9
5 4 14 -2 33 -5 43 -5 28 0 20 -15 -19 -36 -40 -20 -46 -37 -17 -42 28 -6 37
-20 24 -36 -7 -8 -11 -23 -10 -33 1 -10 -1 -31 -6 -46 -6 -21 -10 -25 -16 -15
-7 10 -9 10 -9 0 0 -7 -4 -10 -10 -7 -6 3 -10 1 -10 -4 0 -10 14 -15 33 -12 4
0 7 -5 7 -12 0 -6 3 -22 6 -34 5 -20 2 -23 -22 -24 l-29 -1 30 -8 c17 -4 22
-8 13 -9 -22 -1 -24 -31 -3 -31 8 0 15 5 15 10 0 6 5 10 11 10 6 0 9 -7 5 -15
-3 -8 -1 -15 4 -15 6 0 10 6 10 13 0 6 14 20 30 29 31 17 39 41 19 54 -6 3
-15 1 -19 -6 -5 -8 -9 -7 -14 5 -8 23 -8 27 4 20 14 -9 13 8 -2 23 -9 9 -6 12
16 12 15 0 35 -4 45 -9 14 -8 31 4 92 65 40 41 76 74 79 74 3 0 2 -57 -1 -127
-9 -173 -47 -360 -99 -478 -48 -111 -61 -219 -63 -520 -1 -154 3 -318 8 -365
9 -76 12 -85 30 -83 11 1 14 0 8 -3 -18 -8 -16 -27 2 -20 8 3 18 0 22 -7 10
-16 91 -52 99 -44 9 8 44 -11 44 -23 0 -6 -9 -10 -20 -10 -30 0 -24 -19 8 -27
25 -6 24 -7 -23 -21 -27 -7 -59 -14 -70 -15 -11 -1 -22 -5 -25 -9 -3 -3 -113
-38 -245 -76 -334 -98 -345 -101 -345 -93 0 9 107 90 138 104 20 9 23 17 19
42 -3 16 -20 109 -38 205 -17 96 -34 200 -38 230 -3 30 -11 54 -16 53 -6 -1
-11 47 -13 120 -2 67 -7 126 -11 132 -5 5 -14 41 -20 80 -7 38 -17 75 -23 82
-5 7 -7 16 -4 22 3 5 -3 7 -14 4 -21 -5 -28 11 -10 22 16 10 12 25 -5 19 -8
-4 -15 -2 -15 4 0 5 7 12 15 16 18 6 20 53 4 93 l-11 28 -14 -32 c-10 -23 -11
-40 -4 -58 6 -15 8 -30 6 -34 -3 -4 -1 -23 3 -42 4 -19 4 -45 0 -57 -6 -16 -5
-22 6 -22 10 0 15 -10 15 -27 0 -20 3 -24 9 -14 7 10 12 8 25 -10 9 -13 16
-33 16 -44 -1 -17 -3 -15 -16 8 -20 37 -28 28 -15 -17 7 -27 6 -36 -2 -35 -26
3 -37 -2 -37 -15 0 -9 7 -12 18 -9 21 5 47 -21 37 -37 -3 -6 -10 -8 -15 -5 -5
3 -17 -6 -26 -21 -17 -25 -18 -25 -31 -8 -16 22 -17 71 -1 76 7 3 9 11 4 24
-16 39 -28 -28 -25 -141 2 -60 2 -156 1 -211 l-2 -102 -117 -40 c-399 -137
-1081 -436 -1263 -553 -36 -23 -96 -62 -135 -88 -38 -25 -72 -46 -74 -47 -6
-4 -3 -48 4 -73 6 -16 5 -22 -3 -17 -14 9 -24 -10 -28 -51 -2 -34 -10 -51 -18
-42 -2 2 -1 24 4 49 4 25 4 52 0 60 -5 9 -4 24 2 34 8 15 2 13 -34 -8 -55 -32
-60 -32 -52 -2 3 13 1 27 -5 30 -6 4 -11 23 -11 42 0 19 4 33 9 30 13 -8 20
44 48 357 6 65 5 67 -18 69 -13 0 -31 1 -39 2 -12 1 -16 23 -18 118 -1 68 -7
118 -12 118 -6 0 -10 -10 -11 -22 0 -22 -1 -22 -8 -3 -5 11 -7 32 -5 48 3 30
-3 33 -27 14 -18 -13 -69 -105 -69 -124 0 -6 -15 -24 -34 -40 -26 -21 -35 -39
-41 -73 -3 -25 -16 -79 -27 -120 -16 -58 -19 -92 -15 -150 3 -42 9 -85 12 -95
4 -14 2 -12 -8 4 -14 23 -15 20 -21 -65 -3 -49 -6 -105 -6 -125 0 -20 -15 -69
-35 -111 -19 -41 -43 -106 -53 -144 l-19 -68 -6 79 c-4 43 -7 106 -7 139 0 54
3 62 23 71 15 7 23 20 25 45 3 28 1 33 -9 23 -20 -20 -31 -15 -19 7 6 11 8 25
5 30 -3 5 -1 11 5 15 5 3 10 24 10 45 0 21 4 41 8 44 4 2 9 61 10 131 1 84 6
137 16 158 8 18 16 51 19 74 4 33 19 59 68 120 35 43 68 81 73 84 4 4 11 27
13 53 6 46 18 61 25 29 3 -13 11 -5 27 27 13 25 30 53 39 63 8 9 11 17 6 17
-5 0 -3 4 4 9 11 7 9 17 -13 50 -35 56 -28 71 10 24 26 -33 29 -44 27 -92 l-3
-55 37 54 c20 30 46 65 58 78 15 18 21 35 19 68 -1 37 3 50 26 73 32 33 33 46
51 506 12 306 12 395 1 395 -5 0 -8 -17 -6 -37 1 -22 0 -26 -2 -9 -3 22 -7 26
-13 16 -5 -8 -12 -11 -17 -7 -4 5 -1 12 6 16 9 6 10 14 4 26 -15 25 -4 65 17
65 10 0 20 -6 22 -12 3 -7 10 47 16 121 6 73 13 135 16 138 2 3 10 2 17 -2 8
-6 10 -46 4 -159 -4 -83 -9 -176 -10 -206 -2 -30 -6 -63 -10 -72 -4 -9 -4 -21
-2 -25 3 -5 1 -74 -4 -153 -13 -203 -18 -275 -19 -275 -1 0 -4 -52 -6 -117 -4
-105 -17 -179 -39 -232 -6 -14 -5 -17 3 -12 18 11 42 105 43 170 0 34 5 84 9
111 7 40 8 27 6 -58 -3 -106 -2 -107 16 -87 11 11 16 25 12 32 -4 7 -3 8 4 4
13 -8 84 63 76 76 -3 4 1 5 9 2 13 -5 32 10 39 31 1 6 7 9 12 7 13 -4 46 29
39 41 -3 5 -1 7 4 4 13 -8 46 27 36 37 -4 4 0 4 8 1 9 -3 22 2 30 11 12 16 12
17 -4 11 -11 -4 -16 -3 -12 4 4 6 13 8 20 5 8 -3 26 5 42 17 44 34 45 35 101
78 28 22 49 46 45 51 -3 7 -1 8 6 4 7 -4 26 5 47 23 29 26 31 31 15 31 -26 0
-35 16 -13 25 15 6 14 8 -8 20 -14 8 -19 14 -12 15 6 0 12 6 12 14 0 7 14 17
32 22 41 12 45 28 11 45 -18 9 -29 23 -30 39 -1 14 0 20 3 14 3 -6 15 -9 28
-7 12 3 40 -2 61 -11 20 -9 45 -16 54 -16 9 0 33 -9 52 -19 27 -15 39 -17 48
-8 7 7 11 73 11 199 0 220 12 212 -125 89 -49 -44 -94 -81 -98 -81 -5 0 44 46
107 103 l115 102 1 243 c0 229 -1 242 -19 242 -10 0 -94 -73 -191 -167 -95
-93 -169 -159 -163 -148 6 11 79 86 163 168 l152 147 -538 0 c-459 -1 -536 -3
-521 -14 13 -10 15 -16 6 -21 -6 -4 -15 -2 -19 5 -5 9 -25 -5 -65 -44 -32 -31
-61 -56 -65 -56 -4 0 -5 11 -2 25 2 14 10 25 17 25 17 0 26 39 14 62 -9 17
-26 18 -212 18 l-203 0 -48 -50 c-27 -28 -51 -48 -54 -45 -3 3 4 15 15 28 11
12 24 32 28 45 l6 22 -475 0 c-448 0 -476 -1 -476 -18z m1605 -32 c3 -5 1 -10
-4 -10 -6 0 -11 5 -11 10 0 6 2 10 4 10 3 0 8 -4 11 -10z m360 -20 c3 -5 1
-10 -4 -10 -6 0 -11 5 -11 10 0 6 2 10 4 10 3 0 8 -4 11 -10z m2142 -74 c0 -8
-6 -12 -13 -9 -7 2 -22 0 -33 -7 -12 -6 -21 -8 -21 -5 0 3 15 12 33 20 17 8
32 14 33 15 0 0 1 -6 1 -14z m47 -104 c8 -14 -5 -52 -18 -52 -7 0 -50 -20 -96
-45 -46 -25 -85 -43 -87 -41 -3 2 3 16 13 31 13 20 19 23 25 13 7 -11 9 -11 9
0 0 7 4 11 9 8 5 -4 17 -3 26 0 13 5 10 10 -14 25 -34 21 -41 40 -12 32 10 -3
33 3 51 12 39 20 51 12 22 -14 -23 -19 -29 -41 -12 -41 6 0 13 6 16 14 3 8 15
16 26 19 13 4 19 11 15 20 -8 23 15 38 27 19z m22 -30 c-10 -11 -16 -12 -16
-4 0 7 5 12 10 12 6 0 10 8 11 18 0 11 2 13 6 4 3 -8 -2 -21 -11 -30z m-340 3
c-11 -8 -26 -15 -34 -15 -7 0 -10 -4 -7 -10 3 -5 1 -10 -4 -10 -20 0 -11 19
17 34 35 19 53 20 28 1z m104 -75 c0 -11 0 -11 -53 -14 -44 -3 -42 3 5 14 47
11 48 11 48 0z m180 0 c0 -5 -4 -10 -10 -10 -5 0 -7 -6 -4 -14 8 -20 -14 -30
-32 -15 -12 10 -13 9 -8 -5 3 -9 10 -16 14 -16 19 0 -4 -41 -26 -46 -34 -9
-31 -33 2 -26 40 7 21 -14 -24 -28 -20 -6 -54 -19 -74 -28 -33 -15 -37 -22
-43 -64 -4 -27 -11 -48 -15 -48 -5 0 -4 15 1 34 5 19 9 38 8 43 -4 15 14 68
28 84 7 9 11 25 7 35 -4 14 -3 16 4 5 8 -11 13 -6 27 22 12 26 27 39 63 52 26
10 51 22 57 26 12 12 25 11 25 -1z m-2673 -16 c9 -24 -21 -48 -51 -40 -28 7
-33 25 -14 44 17 17 58 15 65 -4z m2378 6 c3 -5 1 -10 -4 -10 -6 0 -11 5 -11
10 0 6 2 10 4 10 3 0 8 -4 11 -10z m-3448 -122 c-3 -8 -6 -5 -6 6 -1 11 2 17
5 13 3 -3 4 -12 1 -19z m-10 -150 c-3 -8 -6 -5 -6 6 -1 11 2 17 5 13 3 -3 4
-12 1 -19z m1568 -38 c5 -8 12 -7 23 2 13 11 14 11 4 -7 -5 -11 -19 -29 -30
-40 -10 -12 -22 -27 -25 -35 -3 -8 -6 9 -6 38 -1 39 3 52 13 52 8 0 18 -5 21
-10z m100 -40 c11 -5 14 -9 8 -9 -7 -1 -13 -11 -13 -23 l0 -22 -21 21 c-12 11
-18 26 -15 32 8 13 14 13 41 1z m104 -30 c18 -5 38 -13 44 -19 6 -6 19 -11 28
-11 10 0 21 -4 24 -10 4 -6 -10 -10 -34 -10 -29 0 -41 4 -41 14 0 9 -15 17
-39 21 -22 4 -42 13 -45 22 -5 11 -2 13 11 8 10 -4 33 -11 52 -15z m-171 -20
c-7 -11 -16 -20 -20 -20 -5 0 -3 9 4 20 7 11 16 20 20 20 5 0 3 -9 -4 -20z
m339 -30 c16 0 -54 -82 -112 -130 -27 -22 -26 -20 8 22 24 30 34 49 27 53 -8
5 -5 11 7 21 10 7 14 14 9 14 -5 0 -3 7 4 15 7 9 20 13 27 10 8 -3 22 -5 30
-5z m53 -45 c-10 -12 -10 -15 4 -15 9 0 16 -4 16 -8 0 -5 -15 -8 -34 -8 l-33
1 21 22 c23 25 46 32 26 8z m274 -57 c-3 -4 -11 -5 -19 -1 -21 7 -19 12 4 10
11 0 18 -5 15 -9z m-354 -18 c0 -5 -5 -10 -11 -10 -5 0 -7 5 -4 10 3 6 8 10
11 10 2 0 4 -4 4 -10z m-1963 -32 c-3 -8 -6 -5 -6 6 -1 11 2 17 5 13 3 -3 4
-12 1 -19z m-20 -140 c-3 -8 -6 -5 -6 6 -1 11 2 17 5 13 3 -3 4 -12 1 -19z
m1286 -31 c2 -7 1 -64 -4 -127 -4 -63 -8 -131 -8 -151 -1 -19 -8 -44 -16 -55
-14 -17 -15 -5 -10 131 3 83 8 165 11 183 5 33 18 42 27 19z m-1296 -34 c-3
-10 -5 -4 -5 12 0 17 2 24 5 18 2 -7 2 -21 0 -30z m-10 -65 c-3 -7 -5 -2 -5
12 0 14 2 19 5 13 2 -7 2 -19 0 -25z m-11 -80 c-3 -35 -8 -74 -10 -88 -2 -14
-16 -101 -30 -195 -33 -217 -41 -271 -66 -430 -12 -71 -23 -148 -26 -170 -3
-22 -9 -62 -14 -90 -6 -27 -17 -94 -26 -147 -9 -54 -20 -98 -25 -98 -13 0 -12
10 16 176 14 82 27 163 30 179 8 63 37 243 51 320 8 44 25 150 38 235 53 334
59 370 64 370 3 0 2 -28 -2 -62z m1285 -375 c-6 -87 -16 -162 -22 -168 -8 -7
-10 35 -4 160 3 93 9 173 12 178 3 5 10 4 16 -2 7 -7 6 -59 -2 -168z m1959 -2
c0 -33 5 -72 10 -87 9 -22 8 -31 -4 -43 -14 -13 -16 -12 -22 17 -4 17 -10 29
-15 26 -5 -3 -9 2 -9 10 0 9 6 15 13 14 6 -2 12 4 12 12 0 8 -6 14 -12 13 -7
-2 -13 1 -13 6 0 5 8 11 18 13 12 3 9 6 -10 9 -19 4 -25 2 -21 -8 3 -7 -1 -13
-10 -13 -23 0 -29 29 -10 48 17 17 52 39 66 41 4 1 7 -26 7 -58z m-1813 -23
c-3 -8 -6 -5 -6 6 -1 11 2 17 5 13 3 -3 4 -12 1 -19z m-23 -34 c3 -8 2 -12 -4
-9 -6 3 -10 10 -10 16 0 14 7 11 14 -7z m-14 -24 c0 -5 -2 -10 -4 -10 -3 0 -8
5 -11 10 -3 6 -1 10 4 10 6 0 11 -4 11 -10z m-586 -360 c-7 -58 -14 -112 -14
-120 0 -9 -3 -10 -9 -5 -10 10 3 213 15 245 5 13 6 13 14 0 5 -9 2 -60 -6
-120z m2339 8 c4 -29 9 -107 13 -173 4 -66 11 -123 16 -126 16 -10 -15 -25
-112 -53 -577 -170 -1222 -426 -1552 -615 -15 -9 -29 -13 -32 -11 -7 8 21 132
31 139 5 3 15 25 23 49 7 24 27 55 44 69 17 14 31 29 31 32 0 3 4 12 9 19 4 7
6 16 3 19 -10 9 27 39 78 62 28 13 59 31 70 41 32 30 246 146 452 247 106 51
195 93 197 93 3 0 39 16 80 35 41 19 82 35 90 35 8 0 16 3 18 8 3 7 50 25 313
116 203 71 209 73 216 70 3 -2 9 -27 12 -56z m837 -78 c8 -5 11 -10 5 -10 -5
0 -17 5 -25 10 -8 5 -10 10 -5 10 6 0 17 -5 25 -10z m-2679 -93 c-1 -4 -1 -20
-1 -35 0 -23 -6 -30 -32 -37 -49 -15 -78 -78 -79 -175 -1 -70 -2 -73 -11 -35
-13 55 -4 174 19 221 21 46 107 97 104 61z m-879 -29 c-8 -8 -9 -4 -5 13 4 13
8 18 11 10 2 -7 -1 -18 -6 -23z m358 -6 c0 -15 -2 -15 -10 -2 -13 20 -13 33 0
25 6 -3 10 -14 10 -23z m570 -29 c0 -20 -3 -24 -11 -16 -7 7 -9 19 -6 27 10
24 17 19 17 -11z m-933 -5 c-3 -8 -6 -5 -6 6 -1 11 2 17 5 13 3 -3 4 -12 1
-19z m573 -26 c0 -33 -11 -48 -100 -142 l-99 -105 -1 42 c0 43 6 53 90 149 19
22 48 55 63 72 33 39 47 34 47 -16z m329 -69 c-31 -49 -37 -25 -7 28 15 28 24
36 26 25 2 -9 -7 -33 -19 -53z m-1509 -93 c0 -5 -2 -10 -4 -10 -3 0 -8 5 -11
10 -3 6 -1 10 4 10 6 0 11 -4 11 -10z m1517 -52 c-3 -8 -6 -5 -6 6 -1 11 2 17
5 13 3 -3 4 -12 1 -19z m-578 -105 c-7 -12 -22 -26 -33 -29 -12 -4 -27 -15
-34 -26 -7 -10 -18 -16 -23 -12 -6 3 -20 -2 -31 -13 -21 -18 -21 -18 -14 22 5
25 16 47 32 59 14 10 44 35 67 56 l42 39 3 -36 c2 -20 -2 -47 -9 -60z m556
-13 l-13 -65 0 90 c-1 81 0 88 12 65 12 -21 12 -36 1 -90z m-520 5 c-4 -25
-10 -43 -13 -41 -7 8 -4 74 4 87 12 20 15 1 9 -46z m618 -50 c-3 -9 -8 -14
-10 -11 -3 3 -2 9 2 15 9 16 15 13 8 -4z m-833 -3 c0 -5 -9 -17 -20 -27 -11
-10 -20 -24 -20 -32 0 -7 -5 -13 -12 -13 -6 0 -20 -8 -30 -17 -16 -14 -21 -15
-28 -3 -13 20 2 47 40 74 35 25 70 34 70 18z m737 -54 c-3 -7 -5 -2 -5 12 0
14 2 19 5 13 2 -7 2 -19 0 -25z m-867 -11 c0 -8 -10 -23 -23 -35 -23 -22 -24
-22 -42 -3 -25 29 -13 51 30 51 22 0 35 -5 35 -13z m-140 -44 c0 -12 -20 -27
-63 -45 -103 -44 -132 -47 -109 -11 9 15 130 71 155 72 10 1 17 -6 17 -16z
m77 -65 c-3 -8 -6 -5 -6 6 -1 11 2 17 5 13 3 -3 4 -12 1 -19z m-277 0 c0 -21
-13 -34 -52 -52 -20 -10 -39 -27 -43 -39 -7 -19 -8 -18 -14 13 -4 20 -12 34
-19 32 -7 -1 -12 2 -12 7 0 18 34 36 79 42 25 3 49 7 54 8 4 0 7 -5 7 -11z
m650 -19 c0 -4 -11 -25 -25 -45 -16 -24 -25 -52 -26 -78 0 -23 -7 -75 -15
-116 l-14 -75 6 75 c10 132 13 154 31 212 13 46 19 55 30 46 7 -6 13 -14 13
-19z m-383 -21 c-3 -8 -6 -5 -6 6 -1 11 2 17 5 13 3 -3 4 -12 1 -19z m-243
-117 c-11 -12 -18 19 -14 64 2 25 4 23 10 -15 4 -25 6 -47 4 -49z m221 -21
c-2 -39 -10 -58 -19 -49 -7 7 6 89 14 89 4 0 6 -18 5 -40z m156 -7 c-4 -28 -6
-32 -9 -15 -3 22 3 52 11 52 1 0 1 -17 -2 -37z m857 8 c-2 -17 -1 -28 4 -25
11 7 10 -3 -3 -28 -8 -15 -8 -19 0 -14 6 4 11 4 11 -1 -1 -9 -36 -53 -43 -53
-3 0 -8 30 -12 66 -5 51 -4 69 7 75 27 18 40 10 36 -20z"/>
<path d="M2257 2517 c2 -4 -1 -14 -7 -22 -20 -24 1 -17 21 7 23 26 23 24 0 24
-11 0 -17 -4 -14 -9z"/>
<path d="M2699 3178 c-1 -84 -3 -186 -5 -226 -2 -54 0 -71 9 -65 7 4 44 30 82
58 39 29 180 127 314 218 l244 167 -321 0 -322 0 -1 -152z"/>
<path d="M3155 3183 c-121 -80 -275 -186 -342 -235 l-123 -89 0 -200 c0 -131
3 -198 10 -194 6 3 11 54 12 113 2 87 3 94 5 35 3 -64 6 -73 23 -73 10 0 23
-7 28 -16 8 -14 14 -13 51 11 24 14 62 37 84 49 100 55 289 157 372 200 50 26
97 51 105 56 8 5 40 22 71 37 75 37 187 102 194 113 3 5 2 83 -1 174 l-7 166
-131 0 -132 0 -219 -147z m309 -169 c9 -23 -2 -34 -34 -34 -32 0 -45 13 -36
35 7 20 62 19 70 -1z"/>
<path d="M508 3093 c7 -3 16 -2 19 1 4 3 -2 6 -13 5 -11 0 -14 -3 -6 -6z"/>
<path d="M3515 2889 c-4 -6 -5 -12 -2 -15 2 -3 7 2 10 11 7 17 1 20 -8 4z"/>
<path d="M3680 2876 c0 -9 7 -16 16 -16 9 0 14 5 12 12 -6 18 -28 21 -28 4z"/>
<path d="M3555 2870 c-3 -5 -1 -10 4 -10 6 0 11 5 11 10 0 6 -2 10 -4 10 -3 0
-8 -4 -11 -10z"/>
<path d="M3615 2860 c3 -5 12 -10 20 -10 8 0 17 5 20 10 4 6 -5 10 -20 10 -15
0 -24 -4 -20 -10z"/>
<path d="M3790 2846 c-19 -7 -51 -22 -70 -34 -19 -12 -51 -30 -70 -40 -49 -24
-80 -46 -80 -54 0 -3 20 4 44 17 32 17 47 20 55 12 6 -6 11 -7 11 -3 0 5 6 4
13 -1 8 -6 21 -5 37 3 24 13 24 14 3 14 -16 0 -21 4 -16 16 3 9 13 14 24 11
11 -3 19 -2 19 2 0 11 64 46 79 43 14 -4 10 20 -5 24 -5 2 -25 -3 -44 -10z"/>
<path d="M3390 2828 c0 -7 -3 -24 -6 -38 -5 -24 -5 -24 10 -6 18 22 21 56 6
56 -5 0 -10 -6 -10 -12z"/>
<path d="M3266 2764 c-43 -24 -82 -44 -87 -44 -5 0 -7 -12 -5 -26 5 -28 16
-45 16 -25 0 7 4 10 9 6 5 -3 12 -1 16 4 3 6 32 22 65 37 48 21 60 32 65 56 4
16 5 31 3 32 -1 2 -38 -16 -82 -40z"/>
<path d="M3410 2754 c0 -8 5 -12 10 -9 6 4 8 11 5 16 -9 14 -15 11 -15 -7z"/>
<path d="M3776 2724 c-11 -8 -16 -14 -10 -14 13 0 39 18 34 24 -3 2 -14 -2
-24 -10z"/>
<path d="M3426 2701 c-3 -5 1 -11 9 -14 9 -4 12 -1 8 9 -6 16 -10 17 -17 5z"/>
<path d="M3775 2690 c-13 -6 -15 -9 -5 -9 8 0 22 4 30 9 18 12 2 12 -25 0z"/>
<path d="M3967 2673 c3 -7 9 -13 13 -13 4 0 10 6 13 13 3 7 -3 13 -13 13 -10
0 -16 -6 -13 -13z"/>
<path d="M3432 2635 c-7 -14 -12 -29 -12 -33 1 -10 40 38 40 49 0 18 -17 8
-28 -16z"/>
<path d="M3822 2579 c-7 -12 -11 -24 -8 -27 3 -3 6 0 6 7 0 7 5 9 10 6 6 -3
10 3 10 14 0 26 -2 26 -18 0z"/>
<path d="M2438 2453 c7 -3 16 -2 19 1 4 3 -2 6 -13 5 -11 0 -14 -3 -6 -6z"/>
<path d="M2996 2401 c-16 -18 -18 -33 -14 -135 2 -64 7 -118 10 -122 4 -3 26
-2 50 3 39 8 43 11 46 41 3 28 0 32 -21 32 -23 0 -25 5 -38 101 -14 100 -14
101 -33 80z"/>
<path d="M2405 2360 c-3 -5 9 -16 27 -25 29 -14 30 -14 14 0 -11 8 -24 15 -29
15 -4 0 -5 5 -2 10 3 6 4 10 1 10 -3 0 -7 -4 -11 -10z"/>
<path d="M3420 2350 c0 -5 5 -10 10 -10 6 0 10 5 10 10 0 6 -4 10 -10 10 -5 0
-10 -4 -10 -10z"/>
<path d="M2906 2328 c-9 -12 -16 -29 -16 -38 0 -8 -12 -53 -25 -99 -14 -47
-25 -89 -25 -94 0 -15 21 5 30 29 10 26 30 33 30 10 0 -9 8 -12 26 -8 23 4 24
7 17 36 -4 17 -8 66 -8 109 0 42 -3 77 -7 77 -4 0 -14 -10 -22 -22z m-4 -100
c-2 -21 -8 -38 -14 -38 -5 0 -6 10 -3 23 4 12 9 30 12 40 8 29 11 16 5 -25z"/>
<path d="M2410 2316 c0 -2 7 -7 16 -10 8 -3 12 -2 9 4 -6 10 -25 14 -25 6z"/>
<path d="M3402 2258 c0 -24 5 -46 10 -49 4 -3 2 -24 -6 -47 -8 -23 -11 -42 -7
-42 14 0 53 119 46 140 -4 11 -15 25 -26 30 -17 10 -19 7 -17 -32z m23 12 c3
-5 1 -10 -4 -10 -6 0 -11 5 -11 10 0 6 2 10 4 10 3 0 8 -4 11 -10z"/>
<path d="M2813 2283 c-9 -3 -13 -27 -13 -66 -1 -65 -12 -63 -24 6 -7 38 -12
42 -32 29 -17 -10 -25 -232 -8 -225 12 4 23 45 25 92 1 17 5 9 12 -23 19 -81
41 -34 56 119 4 41 4 75 1 74 -3 0 -11 -3 -17 -6z"/>
<path d="M2631 2184 c-24 -31 -36 -80 -35 -152 0 -65 15 -83 45 -56 33 29 49
77 49 143 0 95 -19 116 -59 65z m26 -90 c-8 -82 -27 -94 -27 -18 0 60 4 74 23
74 6 0 7 -23 4 -56z"/>
<path d="M2550 2131 c-5 -11 -13 -66 -16 -123 -5 -83 -4 -101 6 -91 14 13 41
233 28 233 -4 0 -12 -9 -18 -19z"/>
<path d="M2486 2103 c-25 -13 -28 -19 -22 -51 3 -21 6 -70 6 -110 0 -46 4 -71
10 -67 6 3 10 42 10 86 0 53 5 90 16 110 21 41 15 50 -20 32z"/>
<path d="M3411 2093 c-1 -12 -5 -25 -11 -28 -5 -3 -10 -18 -10 -33 1 -23 3
-20 16 16 8 24 13 49 10 55 -2 7 -5 2 -5 -10z"/>
<path d="M3063 2072 c-9 -6 -9 -33 0 -115 9 -92 9 -110 -4 -118 -21 -13 -36
13 -43 79 -16 136 -17 142 -37 142 -11 0 -19 -1 -19 -3 0 -18 31 -218 36 -230
12 -33 66 -32 79 1 4 9 9 55 12 102 6 93 -4 154 -24 142z"/>
<path d="M3550 2050 c-8 -5 -11 -12 -7 -16 4 -4 13 -2 19 4 15 15 7 24 -12 12z"/>
<path d="M2428 2045 c-9 -15 -28 -160 -27 -208 1 -25 4 -32 6 -19 3 16 10 22
19 18 8 -3 17 0 20 8 7 19 -10 213 -18 201z m-1 -142 c-3 -10 -5 -2 -5 17 0
19 2 27 5 18 2 -10 2 -26 0 -35z"/>
<path d="M2867 2033 c-5 -8 -24 -153 -30 -225 -2 -31 0 -38 14 -38 12 0 19 9
21 28 2 21 9 28 31 30 21 3 27 -1 27 -17 0 -24 11 -33 29 -22 10 6 3 36 -31
130 -40 113 -50 132 -61 114z m43 -169 c0 -1 -9 -4 -20 -7 -22 -6 -26 13 -13
73 l6 33 13 -49 c7 -27 13 -50 14 -50z"/>
<path d="M4960 2026 c0 -9 7 -12 20 -9 11 3 20 9 20 14 0 5 -9 9 -20 9 -11 0
-20 -6 -20 -14z"/>
<path d="M2783 1985 c-20 -14 -27 -55 -37 -222 -2 -26 11 -29 49 -11 34 15 35
41 0 28 -24 -9 -25 -8 -25 35 0 34 5 47 20 55 24 13 17 32 -7 23 -14 -5 -15
-1 -9 27 3 19 14 42 23 52 21 23 13 32 -14 13z"/>
<path d="M3400 1984 c0 -8 5 -12 10 -9 6 4 8 11 5 16 -9 14 -15 11 -15 -7z"/>
<path d="M2364 1975 c-4 -8 -3 -35 0 -60 9 -58 0 -58 -15 0 -6 25 -17 45 -24
45 -17 0 -21 -35 -17 -143 3 -75 6 -88 20 -85 13 2 16 14 14 58 l-1 55 17 -49
c14 -38 20 -46 25 -32 11 29 8 226 -3 226 -6 0 -13 -7 -16 -15z"/>
<path d="M2688 1928 c-13 -10 -18 -39 -22 -128 -4 -74 -3 -108 3 -95 5 11 10
38 11 60 l2 40 11 -42 c5 -24 14 -43 19 -43 7 0 0 79 -8 89 -2 2 3 16 11 32
19 36 20 99 2 99 -7 0 -20 -6 -29 -12z m22 -42 c0 -31 -10 -57 -19 -52 -10 7
-1 76 10 76 5 0 9 -11 9 -24z"/>
<path d="M3404 1926 c-18 -19 -23 -65 -8 -77 10 -8 14 -3 19 24 9 46 4 69 -11
53z"/>
<path d="M2221 1901 c-9 -6 -15 -41 -18 -115 -5 -94 -4 -106 11 -106 12 0 16
10 17 43 l1 42 9 -33 c11 -38 36 -38 31 -1 -2 13 -3 59 -2 102 1 68 -1 77 -17
77 -10 0 -24 -4 -32 -9z m29 -53 c0 -7 -5 -20 -10 -28 -8 -12 -10 -9 -10 13 0
15 5 27 10 27 6 0 10 -6 10 -12z"/>
<path d="M2620 1811 c0 -95 -12 -147 -31 -135 -8 5 -10 37 -7 100 5 86 -2 122
-14 76 -10 -36 -9 -200 1 -206 14 -9 40 4 52 26 16 29 25 228 11 228 -8 0 -12
-29 -12 -89z"/>
<path d="M2161 1853 c-10 -21 -20 -223 -10 -223 19 0 44 67 27 72 -7 3 -7 16
0 41 6 22 7 37 1 37 -12 0 -12 37 1 45 13 8 13 45 0 45 -5 0 -13 -8 -19 -17z"/>
<path d="M2517 1822 c-14 -15 -17 -39 -17 -128 1 -107 1 -109 19 -87 13 16 19
46 24 120 3 54 2 101 -2 106 -4 4 -15 -1 -24 -11z m9 -90 c-13 -12 -17 8 -9
44 l8 39 3 -39 c2 -21 1 -41 -2 -44z m4 -59 c0 -16 -5 -35 -10 -43 -7 -11 -10
-4 -10 28 0 23 5 42 10 42 6 0 10 -12 10 -27z"/>
<path d="M2110 1805 c-14 -17 -23 -222 -9 -207 7 8 31 213 26 219 -2 2 -10 -4
-17 -12z"/>
<path d="M2442 1760 c0 -14 2 -19 5 -12 2 6 2 18 0 25 -3 6 -5 1 -5 -13z"/>
<path d="M2072 1735 c0 -16 2 -22 5 -12 2 9 2 23 0 30 -3 6 -5 -1 -5 -18z"/>
<path d="M2051 1740 c-2 -3 -4 -52 -6 -110 -2 -73 0 -90 5 -55 7 49 7 49 8 11
3 -55 8 -42 16 37 4 44 3 66 -3 63 -5 -4 -12 8 -14 26 -2 18 -5 31 -6 28z"/>
<path d="M2411 1724 c0 -11 3 -14 6 -6 3 7 2 16 -1 19 -3 4 -6 -2 -5 -13z"/>
<path d="M1940 1676 c5 -15 10 -46 11 -69 1 -41 1 -41 10 -12 11 36 3 79 -17
96 -13 10 -13 8 -4 -15z"/>
<path d="M2009 1638 c0 -35 -2 -82 -5 -105 -3 -27 -1 -43 6 -43 5 0 10 17 10
38 0 20 3 67 7 105 4 47 3 67 -6 67 -7 0 -11 -23 -12 -62z"/>
<path d="M2368 1680 c-19 -18 -25 -45 -8 -35 6 3 10 -4 11 -17 1 -13 5 -3 10
21 5 25 8 46 6 47 -1 1 -10 -6 -19 -16z"/>
<path d="M2401 1659 c1 -19 5 -47 10 -64 5 -20 6 -9 2 30 -6 66 -14 88 -12 34z"/>
<path d="M2318 1654 c-3 -3 -4 -35 -2 -72 l4 -67 -21 58 c-11 31 -25 57 -30
57 -10 0 -12 -162 -3 -197 14 -50 25 -20 20 50 l-6 72 16 -50 c9 -27 19 -57
21 -65 11 -34 22 28 21 118 0 84 -6 111 -20 96z"/>
<path d="M1867 1621 c-4 -18 -7 -45 -6 -60 1 -17 4 -11 10 19 5 25 8 52 6 60
-2 8 -6 0 -10 -19z"/>
<path d="M2197 1603 c-4 -3 -7 -32 -7 -64 0 -52 2 -57 20 -52 11 3 20 11 20
19 0 8 -6 11 -15 8 -12 -5 -15 3 -15 35 0 29 4 41 14 41 8 0 18 5 21 10 7 11
-28 14 -38 3z"/>
<path d="M2132 1551 c-11 -6 -13 -33 -10 -109 1 -55 7 -104 11 -109 5 -4 18 3
29 17 18 22 20 35 15 100 -7 103 -15 121 -45 101z m26 -96 c5 -75 -7 -119 -18
-70 -4 17 -8 59 -9 95 -1 87 21 66 27 -25z"/>
<path d="M2361 1534 c0 -11 3 -14 6 -6 3 7 2 16 -1 19 -3 4 -6 -2 -5 -13z"/>
<path d="M2092 1423 c-2 -128 -22 -141 -22 -15 l-1 87 -20 -25 c-10 -14 -28
-36 -39 -48 -24 -28 -25 -67 -5 -113 18 -42 21 -11 3 37 -10 29 -8 36 22 80
l32 49 -6 -77 c-6 -84 -2 -108 20 -108 23 0 30 39 24 140 l-6 95 -2 -102z"/>
<path d="M2401 1504 c0 -11 3 -14 6 -6 3 7 2 16 -1 19 -3 4 -6 -2 -5 -13z"/>
<path d="M1825 1409 c-4 -26 -3 -45 4 -52 8 -8 11 3 11 41 0 63 -6 67 -15 11z"/>
<path d="M1900 1414 c0 -2 9 -8 20 -14 11 -6 20 -7 20 -2 0 6 -9 12 -20 15
-11 3 -20 3 -20 1z"/>
<path d="M2212 1409 c-13 -5 -21 -13 -18 -18 9 -13 46 -1 46 15 0 8 -1 14 -2
13 -2 0 -13 -4 -26 -10z"/>
<path d="M1944 1325 c5 -42 2 -75 -8 -110 -19 -60 -13 -71 10 -19 20 47 23
159 5 177 -11 10 -12 1 -7 -48z"/>
<path d="M2001 1258 c0 -9 -7 -18 -13 -21 -7 -2 -10 -8 -5 -12 11 -13 29 11
24 31 -4 16 -5 16 -6 2z"/>
<path d="M4080 1180 c0 -5 5 -10 10 -10 6 0 10 5 10 10 0 6 -4 10 -10 10 -5 0
-10 -4 -10 -10z"/>
<path d="M4115 1153 c11 -3 24 -9 30 -14 5 -5 16 -9 25 -9 9 1 6 6 -10 15 -14
8 -34 14 -45 13 l-20 0 20 -5z"/>
<path d="M4103 1123 c9 -2 23 -2 30 0 6 3 -1 5 -18 5 -16 0 -22 -2 -12 -5z"/>
<path d="M1 534 c0 -11 3 -14 6 -6 3 7 2 16 -1 19 -3 4 -6 -2 -5 -13z"/>
<path d="M1437 250 c-10 -53 -27 -188 -27 -221 0 -23 4 -29 23 -29 22 0 22 2
19 107 -1 60 -4 124 -5 143 l-3 35 -7 -35z"/>
<path d="M1391 14 c0 -11 3 -14 6 -6 3 7 2 16 -1 19 -3 4 -6 -2 -5 -13z"/>
</g>
</svg>
