<svg width="22" height="17" viewBox="0 0 22 17" fill="none" xmlns="http://www.w3.org/2000/svg">
<path d="M18.481 7.19482C18.481 10.6994 13.6606 13.8077 11.6496 14.9519C11.1092 15.2594 10.4605 15.2594 9.92001 14.9519C7.90908 13.8077 3.08862 10.6994 3.08862 7.19482C3.08862 5.68485 3.89947 4.23672 5.34279 3.16901C6.78611 2.1013 8.74367 1.50146 10.7848 1.50146C12.826 1.50146 14.7835 2.1013 16.2269 3.16901C17.6702 4.23672 18.481 5.68485 18.481 7.19482Z" fill="#716E90"/>
<path d="M10.7848 9.09269C12.2017 9.09269 13.3502 8.24302 13.3502 7.19491C13.3502 6.14679 12.2017 5.29712 10.7848 5.29712C9.36799 5.29712 8.21942 6.14679 8.21942 7.19491C8.21942 8.24302 9.36799 9.09269 10.7848 9.09269Z" fill="white"/>
</svg>
