<svg width="23" height="23" viewBox="0 0 23 23" fill="none" xmlns="http://www.w3.org/2000/svg">
<path d="M6.77782 9.40412L4.80557 11.3764C3.99675 12.1852 3.54236 13.2822 3.54236 14.426C3.54236 15.5699 3.99675 16.6669 4.80557 17.4757C5.61439 18.2845 6.71138 18.7389 7.85522 18.7389C8.99907 18.7389 10.0961 18.2845 10.9049 17.4757L13.5326 14.8465C14.0204 14.3587 14.384 13.761 14.5929 13.1036C14.8019 12.4462 14.8501 11.7483 14.7335 11.0684C14.6169 10.3885 14.3389 9.74649 13.9228 9.19627C13.5068 8.64605 12.9648 8.20367 12.3424 7.90625L11.5 8.74862C11.4145 8.8343 11.3401 8.93041 11.2786 9.03469C11.7595 9.17293 12.196 9.43428 12.5449 9.79291C12.8938 10.1515 13.1431 10.595 13.2681 11.0795C13.3931 11.564 13.3895 12.0727 13.2577 12.5554C13.1258 13.0381 12.8703 13.478 12.5163 13.8316L9.89001 16.4594C9.35054 16.9988 8.61886 17.3019 7.85594 17.3019C7.09302 17.3019 6.36135 16.9988 5.82188 16.4594C5.28241 15.9199 4.97934 15.1882 4.97934 14.4253C4.97934 13.6624 5.28241 12.9307 5.82188 12.3912L6.96182 11.2528C6.80098 10.65 6.73884 10.0267 6.77782 9.40412Z" fill="#767676"/>
<path d="M9.46738 6.71591C8.97965 7.20372 8.61605 7.80141 8.4071 8.45881C8.19815 9.11622 8.14995 9.81415 8.26655 10.494C8.38315 11.1739 8.66115 11.8159 9.0772 12.3661C9.49326 12.9164 10.0352 13.3587 10.6576 13.6562L11.7717 12.5407C11.2843 12.4099 10.8399 12.1532 10.4832 11.7963C10.1264 11.4394 9.8699 10.9949 9.73937 10.5075C9.60885 10.02 9.60891 9.50684 9.73957 9.01943C9.87022 8.53202 10.1269 8.08758 10.4837 7.73078L13.11 5.10303C13.6495 4.56357 14.3811 4.2605 15.1441 4.2605C15.907 4.2605 16.6387 4.56357 17.1781 5.10303C17.7176 5.6425 18.0207 6.37418 18.0207 7.1371C18.0207 7.90002 17.7176 8.63169 17.1781 9.17116L16.0382 10.3097C16.1992 10.9134 16.261 11.5387 16.2222 12.1597L18.1944 10.1875C19.0033 9.37865 19.4577 8.28166 19.4577 7.13782C19.4577 5.99397 19.0033 4.89698 18.1944 4.08816C17.3856 3.27934 16.2886 2.82495 15.1448 2.82495C14.0009 2.82495 12.904 3.27934 12.0951 4.08816L9.46738 6.71591Z" fill="#767676"/>
</svg>
