<svg width="28" height="23" viewBox="0 0 28 23" fill="none" xmlns="http://www.w3.org/2000/svg">
<g clip-path="url(#clip0_832_119)">
<path d="M19.9653 10.5417C15.8764 10.5417 12.5496 13.3362 12.5496 16.7708C12.5496 20.2055 15.8764 23 19.9653 23C24.0542 23 27.381 20.2055 27.381 16.7708C27.381 13.3362 24.0542 10.5417 19.9653 10.5417ZM19.9653 22.0417C16.5062 22.0417 13.6905 19.6765 13.6905 16.7708C13.6905 13.8652 16.5062 11.5 19.9653 11.5C23.4244 11.5 26.2401 13.8652 26.2401 16.7708C26.2401 19.6765 23.4244 22.0417 19.9653 22.0417ZM23.3183 14.9011L24.1181 15.5844L20.1752 18.8418C19.9276 19.0507 19.5934 19.1667 19.2374 19.1667C18.8814 19.1667 18.5483 19.0507 18.2962 18.838L16.1856 17.1197L16.9785 16.4306L19.0959 18.1556C19.2089 18.2505 19.2751 18.2409 19.3697 18.1623L23.3183 14.9011ZM13.7167 10.5417H4.56349V9.58333H15.3984C14.7971 9.85358 14.2335 10.1756 13.7167 10.5417ZM13.7167 23H0V2.39583C0 1.07429 1.27892 0 2.85218 0H17.6835C19.2568 0 20.5357 1.07429 20.5357 2.39583V8.63937C20.3463 8.62979 20.1569 8.625 19.9653 8.625C19.7736 8.625 19.5842 8.62979 19.3948 8.63937V2.39583C19.3948 1.60329 18.627 0.958333 17.6835 0.958333H2.85218C1.90868 0.958333 1.14087 1.60329 1.14087 2.39583V22.0417H12.5724C12.9215 22.3867 13.3049 22.7077 13.7179 23H13.7167ZM15.9722 5.75H4.56349V4.79167H15.9722V5.75ZM4.56349 14.375H10.2679V15.3333H4.56349V14.375Z" fill="#767676"/>
</g>
<defs>
<clipPath id="clip0_832_119">
<rect width="27.381" height="23" fill="white"/>
</clipPath>
</defs>
</svg>
