<svg width="35" height="35" viewBox="0 0 35 35" fill="none" xmlns="http://www.w3.org/2000/svg">
<path fill-rule="evenodd" clip-rule="evenodd" d="M17.5 4.375C17.7901 4.375 18.0683 4.49023 18.2734 4.69535C18.4785 4.90047 18.5938 5.17867 18.5938 5.46875V16.4062H29.5312C29.8213 16.4062 30.0995 16.5215 30.3046 16.7266C30.5098 16.9317 30.625 17.2099 30.625 17.5C30.625 17.7901 30.5098 18.0683 30.3046 18.2734C30.0995 18.4785 29.8213 18.5938 29.5312 18.5938H18.5938V29.5312C18.5938 29.8213 18.4785 30.0995 18.2734 30.3046C18.0683 30.5098 17.7901 30.625 17.5 30.625C17.2099 30.625 16.9317 30.5098 16.7266 30.3046C16.5215 30.0995 16.4062 29.8213 16.4062 29.5312V18.5938H5.46875C5.17867 18.5938 4.90047 18.4785 4.69535 18.2734C4.49023 18.0683 4.375 17.7901 4.375 17.5C4.375 17.2099 4.49023 16.9317 4.69535 16.7266C4.90047 16.5215 5.17867 16.4062 5.46875 16.4062H16.4062V5.46875C16.4062 5.17867 16.5215 4.90047 16.7266 4.69535C16.9317 4.49023 17.2099 4.375 17.5 4.375Z" fill="white"/>
</svg>
